<svg id="icon" xmlns="http://www.w3.org/2000/svg" viewBox="0 0 512 512"><title>plan</title><path d="M27.83,75.07V436.93a5.58,5.58,0,0,0,5.59,5.58H478.58a5.58,5.58,0,0,0,5.59-5.58V184.87a26.46,26.46,0,0,0-26.43-26.43H419.82a19.73,19.73,0,0,1-19.71-19.71V104.64a5.59,5.59,0,0,0-11.17,0v34.09a30.91,30.91,0,0,0,30.88,30.88h37.92A15.28,15.28,0,0,1,473,184.87V431.35H39V80.65H391.16a29.51,29.51,0,0,1,20.54,8.27L463.88,139a5.59,5.59,0,1,0,7.74-8.06L419.43,80.86a40.65,40.65,0,0,0-28.27-11.37H33.42A5.58,5.58,0,0,0,27.83,75.07Z"/><path d="M295.22,230.71a5.58,5.58,0,0,0-5.58,5.58v16.87a5.57,5.57,0,0,0,2.95,4.92,5.47,5.47,0,0,0,2.63.67,5.61,5.61,0,0,0,3.1-.94L358.17,218a5.58,5.58,0,0,0,0-9.29l-59.85-39.82a5.59,5.59,0,0,0-8.68,4.65v34.23h-63.5A126,126,0,0,0,100.26,333.65v27.07a25.47,25.47,0,1,0,31.06,24.85,5.58,5.58,0,1,0-11.16,0,14.32,14.32,0,1,1-14.32-14.32,5.58,5.58,0,0,0,5.58-5.59v-32A114.85,114.85,0,0,1,226.14,218.93h69.08a5.58,5.58,0,0,0,5.59-5.58V184L345,213.35l-44.19,29.39v-6.45A5.58,5.58,0,0,0,295.22,230.71Z"/><path d="M414.09,185.14a28.21,28.21,0,1,0,28.2,28.21A28.24,28.24,0,0,0,414.09,185.14Zm0,45.24a17,17,0,1,1,17-17A17.05,17.05,0,0,1,414.09,230.38Z"/><path d="M79.59,190.51a5.59,5.59,0,0,0,7.89,0l44.61-44.6a5.59,5.59,0,0,0-7.9-7.9l-18.35,18.36L87.48,138a5.58,5.58,0,1,0-7.89,7.9l18.35,18.35L79.59,182.61A5.59,5.59,0,0,0,79.59,190.51Z"/><path d="M124.35,174.88a5.58,5.58,0,1,0-7.89,7.89l7.73,7.74a5.59,5.59,0,0,0,7.9-7.9Z"/><path d="M206.65,355.7a5.6,5.6,0,0,0,7.9,0l44.6-44.6a5.59,5.59,0,1,0-7.9-7.9L232.9,321.56,214.55,303.2a5.59,5.59,0,1,0-7.9,7.9L225,329.45,206.65,347.8A5.59,5.59,0,0,0,206.65,355.7Z"/><path d="M251.25,355.7a5.59,5.59,0,0,0,7.9-7.9l-7.74-7.73a5.58,5.58,0,0,0-7.89,7.89Z"/><path d="M441.67,332.18h-6a5.58,5.58,0,1,0,0,11.16h6a5.58,5.58,0,1,0,0-11.16Z"/><path d="M441.67,363.06H396.08a5.58,5.58,0,1,0,0,11.16h45.59a5.58,5.58,0,1,0,0-11.16Z"/><path d="M353.68,405.11h88a5.59,5.59,0,0,0,0-11.17h-88a5.59,5.59,0,0,0,0,11.17Z"/><path d="M412.14,337.76a5.58,5.58,0,0,0-5.58-5.58H353.68a5.58,5.58,0,1,0,0,11.16h52.88A5.58,5.58,0,0,0,412.14,337.76Z"/><path d="M353.68,363.06a5.58,5.58,0,1,0,0,11.16h13.49a5.58,5.58,0,0,0,0-11.16Z"/></svg>